<?xml version="1.0" encoding="UTF-8" standalone="no"?>
<!DOCTYPE svg PUBLIC "-//W3C//DTD SVG 1.1//EN" "http://www.w3.org/Graphics/SVG/1.1/DTD/svg11.dtd">
<svg width="100%" height="100%" viewBox="0 0 256 256" version="1.1" xmlns="http://www.w3.org/2000/svg" xmlns:xlink="http://www.w3.org/1999/xlink" xml:space="preserve" xmlns:serif="http://www.serif.com/" style="fill-rule:evenodd;clip-rule:evenodd;stroke-linejoin:round;stroke-miterlimit:2;">
    <path d="M173.167,15.943L208.601,51.38L176.752,51.38C174.774,51.38 173.167,49.77 173.167,47.791L173.167,15.943Z" style="fill:white;"/>
    <path d="M210.214,246.02L45.784,246.02C43.384,246.02 41.434,244.07 41.434,241.67L41.434,14.33C41.434,11.93 43.384,9.98 45.784,9.98L164.737,9.98L164.737,47.791C164.737,54.417 170.126,59.81 176.752,59.81L214.566,59.81L214.566,241.67C214.566,244.07 212.613,246.02 210.214,246.02Z" style="fill:white;"/>
    <g transform="matrix(2.81,0,0,2.81,1.40659,1.40659)">
        <g transform="matrix(1,0,0,1,0.0505344,0.0510344)">
            <path d="M77.474,17.28L61.526,1.332C60.668,0.473 59.525,0 58.311,0L15.742,0C13.234,0 11.194,2.04 11.194,4.548L11.194,85.452C11.194,87.96 13.234,90 15.742,90L74.258,90C76.766,90 78.807,87.96 78.807,85.452L78.807,20.496C78.807,19.281 78.333,18.138 77.474,17.28ZM61.073,5.121L73.684,17.733L62.35,17.733C61.646,17.733 61.074,17.16 61.074,16.456L61.074,5.121L61.073,5.121ZM74.258,87L15.742,87C14.888,87 14.194,86.306 14.194,85.452L14.194,4.548C14.194,3.694 14.888,3 15.742,3L58.074,3L58.074,16.456C58.074,18.814 59.992,20.733 62.35,20.733L75.807,20.733L75.807,85.452C75.807,86.306 75.112,87 74.258,87Z" style="fill-rule:nonzero;"/>
        </g>
        <path d="M-10.246,0L10.246,0" style="fill:none;fill-rule:nonzero;"/>
    </g>
    <g transform="matrix(0.361719,0,0,0.361719,36.1217,38.877)">
        <g transform="matrix(1,0,0,1,-5.3057,-64.3429)">
            <path d="M190.72,17.688C189.484,17.688 188.245,17.688 187,17.718C185.816,17.748 184.63,17.814 183.437,17.875C182.522,17.922 181.607,17.968 180.687,18.031C179.143,18.135 177.591,18.258 176.031,18.407C136.251,22.227 92.026,40.787 62.438,72.345C61.524,73.32 60.631,74.315 59.751,75.315C59.121,76.03 58.491,76.742 57.876,77.47C57.523,77.888 57.192,78.328 56.846,78.75C56.306,79.403 55.776,80.057 55.251,80.72C55.183,80.805 55.101,80.882 55.031,80.97C54.259,81.95 53.495,82.937 52.751,83.938C51.844,85.158 50.957,86.38 50.095,87.625C49.915,87.885 49.741,88.145 49.563,88.405C48.76,89.582 47.983,90.772 47.22,91.969C47.153,92.069 47.096,92.179 47.03,92.279C46.17,93.635 45.312,94.995 44.5,96.374C44.496,96.382 44.504,96.398 44.5,96.404C43.72,97.729 42.953,99.061 42.22,100.404C42.008,100.79 41.8,101.174 41.594,101.561C41.196,102.305 40.822,103.061 40.437,103.811C40.087,104.496 39.747,105.185 39.407,105.874C39.359,105.971 39.297,106.059 39.25,106.154C38.705,107.264 38.173,108.379 37.656,109.499C37.076,110.759 36.513,112.009 35.969,113.279C35.546,114.264 35.149,115.259 34.749,116.249C34.291,117.381 33.836,118.515 33.405,119.655C32.975,120.797 32.559,121.945 32.155,123.093C32.151,123.105 32.128,123.111 32.125,123.123C31.725,124.26 31.372,125.388 30.999,126.53C30.619,127.695 30.259,128.862 29.905,130.03C29.595,131.062 29.258,132.09 28.968,133.125C28.83,133.613 28.724,134.105 28.592,134.595C28.162,136.185 27.755,137.778 27.372,139.375C27.236,139.947 27.097,140.521 26.967,141.095C26.917,141.302 26.857,141.51 26.81,141.719C24.01,154.192 22.685,166.766 22.653,178.874C22.623,190.737 23.776,202.294 26.185,212.968C26.208,213.071 26.223,213.175 26.247,213.278C26.354,213.748 26.479,214.218 26.591,214.685C26.781,215.479 26.979,216.278 27.184,217.06C27.534,218.39 27.92,219.702 28.309,220.998C28.332,221.071 28.349,221.144 28.372,221.218C28.752,222.472 29.14,223.712 29.56,224.936C29.944,226.056 30.36,227.156 30.778,228.248C30.878,228.508 30.96,228.772 31.06,229.028C31.44,230 31.84,230.958 32.248,231.904C32.496,232.479 32.74,233.058 32.998,233.624C33.295,234.274 33.594,234.924 33.904,235.56C33.991,235.74 34.098,235.914 34.186,236.092C34.731,237.192 35.288,238.282 35.873,239.342C36.488,240.456 37.119,241.525 37.779,242.592C38.293,243.42 38.834,244.232 39.374,245.029C39.526,245.254 39.658,245.496 39.812,245.719C40.036,246.041 40.27,246.369 40.499,246.687C40.985,247.362 41.492,248.037 41.999,248.687C42.247,249.005 42.496,249.312 42.749,249.624C43.021,249.96 43.284,250.294 43.562,250.624C43.762,250.862 43.982,251.078 44.186,251.312C44.626,251.816 45.076,252.324 45.53,252.812L46.03,253.342C46.516,253.852 47,254.355 47.5,254.842C48.042,255.372 48.595,255.87 49.156,256.374C49.222,256.434 49.276,256.502 49.344,256.562C49.634,256.819 49.924,257.06 50.219,257.312C50.437,257.498 50.652,257.692 50.874,257.874C51.276,258.206 51.681,258.524 52.094,258.844C52.56,259.206 53.02,259.558 53.499,259.904C53.692,260.044 53.899,260.174 54.093,260.312C54.561,260.642 55.02,260.997 55.499,261.312C55.607,261.382 55.734,261.429 55.843,261.499C56.543,261.951 57.243,262.393 57.968,262.812L58.092,262.905L58.217,262.968L157.747,316.028C146.014,301.324 136.31,286.32 128.622,271.123L51.25,227.187C45.163,214.609 41.295,197.661 41.344,178.937C41.364,170.63 42.101,162.047 43.594,153.469L107.312,198.093C106.832,192.337 106.646,186.573 106.719,180.813C107.342,131.458 128.269,82.961 167.312,38.405C170.855,37.808 174.357,37.331 177.812,36.999C183.6,36.443 189.232,36.279 194.592,36.469C149.11,82.369 126.029,131.743 125.405,181.029C125.272,191.539 126.162,202.095 128.093,212.655L229.813,283.875C229.033,277.203 228.667,270.525 228.749,263.843C229.355,214.593 253.237,166.398 297.374,123.623L263.124,59.373C260.704,51.125 256.314,44.086 250.624,38.28C249.926,37.57 249.204,36.862 248.468,36.187C247.093,34.931 245.683,33.747 244.186,32.625C244.061,32.532 243.936,32.435 243.811,32.345C243.101,31.818 242.359,31.308 241.623,30.813C241.517,30.741 241.417,30.663 241.31,30.593C240.548,30.087 239.786,29.599 238.998,29.125C238.914,29.075 238.832,29.019 238.748,28.969C237.932,28.482 237.088,28.012 236.248,27.562C236.188,27.529 236.122,27.5 236.06,27.468C235.19,27.004 234.3,26.578 233.404,26.154C233.371,26.138 233.344,26.108 233.31,26.092C232.38,25.652 231.452,25.242 230.498,24.842C229.338,24.356 228.161,23.9 226.968,23.467C226.716,23.375 226.468,23.273 226.218,23.185C226.146,23.16 226.068,23.147 225.998,23.122C225.338,22.892 224.668,22.65 223.998,22.434C223.894,22.401 223.79,22.374 223.685,22.341C222.137,21.848 220.565,21.409 218.967,20.997C218.381,20.847 217.777,20.699 217.185,20.559C216.965,20.507 216.749,20.454 216.528,20.403C215.978,20.277 215.431,20.146 214.873,20.028C214.615,19.975 214.35,19.925 214.093,19.873C213.566,19.767 213.028,19.659 212.498,19.56C205.561,18.276 198.264,17.684 190.718,17.685L190.72,17.688ZM365.625,113.312L402.563,270.594L489.625,451.624L478.062,359.25L492.906,234.72L465.844,289.063L436,131.03L436.75,261.53L365.625,113.313L365.625,113.312ZM306.531,140.844C267.611,179.924 247.955,222.057 247.439,264.064C247.296,275.674 248.611,287.354 251.439,299.031L329.564,353.781C329.441,351.329 329.379,348.861 329.407,346.407C329.772,314.352 342.937,282.943 367.187,254.595L306.532,140.845L306.531,140.844ZM376.657,272.406C357.827,296.319 348.38,321.52 348.095,346.626C348.013,353.779 348.695,360.959 350.125,368.156L410.845,410.686C411.591,394.416 416.502,378.413 425.157,363.376L376.657,272.406ZM161.377,289.719C174.057,308.029 190.169,326.113 209.907,343.811L268.437,375.031C259.16,362.716 251.5,350.161 245.47,337.437L161.375,289.717L161.377,289.719ZM54.655,318L101.312,372.094L173.186,386.094L54.657,318L54.655,318ZM147.935,343.5L296.249,443.22L147.936,428.22L292.686,464.437L239.811,484.281L354.811,479.221L456.718,491.971L147.936,343.5L147.935,343.5ZM277.343,355.53C288.06,371.18 301.751,386.628 318.563,401.75L351.186,419.125C345.026,409.321 340.179,399.313 336.624,389.187L277.344,355.531L277.343,355.53ZM435.937,383.594C431.707,393.704 429.537,404.012 429.437,414.314C429.243,433.984 436.452,454.008 452.467,473.124L468.905,481.874L495.968,496.312L481.56,469.219L435.935,383.593L435.937,383.594ZM364.312,404.906C371.589,417.416 381.392,429.803 393.905,441.906L419.53,455.562C416.14,447.879 413.742,440.048 412.313,432.156L364.313,404.906L364.312,404.906Z" style="fill-rule:nonzero;"/>
        </g>
        <g transform="matrix(4.10817,0,0,4.10817,-178.798,456.211)">
            <g transform="matrix(36,0,0,36,49.4093,22.8808)">
            </g>
            <g transform="matrix(36,0,0,36,59.4113,22.8808)">
            </g>
            <g transform="matrix(36,0,0,36,163.421,22.8808)">
            </g>
            <text x="49.409px" y="22.881px" style="font-family:'ArialMT', 'Arial';font-size:36px;">ﬁle-drill</text>
        </g>
    </g>
</svg>
